<svg width="1058" height="836" viewBox="0 0 1058 836" fill="none" xmlns="http://www.w3.org/2000/svg">
<g clip-path="url(#clip0_2_64)">
<path opacity="0.1" d="M983.69 563.22C942.37 593.92 938.81 654.22 945.91 705.22C948.29 722.29 951.28 740.48 944.07 756.13C935.25 775.27 913.37 785.07 892.46 787.74C854.35 792.6 814.27 778.09 788.11 749.95C765.5 725.63 753.5 692.82 730.21 669.15C691.21 629.54 629.54 623.73 574.21 628.7C535.06 632.21 491.51 638.78 459.9 615.41C437.66 598.96 426.9 570.71 424.3 543.17C423.06 529.87 423.3 515.92 417.3 504.01C413.71 496.93 408.11 491.07 402.17 485.8C347.93 437.69 264.24 432.8 212.73 381.8C177.94 347.35 163.54 296.28 164.33 247.33C165.12 198.38 179.52 150.73 195.33 104.33C206.54 71.39 220.03 36.63 248.47 16.59C278.48 -4.6 320.12 -4.23001 353.84 10.53C387.56 25.29 414.38 52.47 436.47 81.91C464.08 118.71 487.32 161.51 527.32 184.24C554.61 199.77 586.48 203.98 617.07 210.77C668.2 222.1 717.27 241.12 765.9 260.57C812.46 279.18 859.21 298.45 900.75 326.57C930.15 346.44 950.67 373.57 977.46 395.93C994.92 410.5 1015.98 418.93 1031.7 435.71C1051.06 456.38 1065.61 487.14 1051.7 514.71C1038.5 540.9 1005.61 546.92 983.69 563.22Z" fill="#69F0AE"/>
<path d="M806.31 175.15H528.94V184.1H806.31V175.15Z" fill="#EBECF0"/>
<path d="M806.31 184.1H528.94V331.39H806.31V184.1Z" fill="#F8F9FA"/>
<path opacity="0.5" d="M804.45 228.98C800.17 229.75 796.45 231.88 792.65 233.81C787.65 236.35 783.72 236.99 778.23 235.42C774.81 234.42 770.95 233.56 767.62 235.33C763.42 237.56 762.94 243.52 756.81 241.64C754.69 240.99 753.81 244.31 755.9 244.96C757.682 245.546 759.597 245.592 761.405 245.092C763.213 244.592 764.832 243.568 766.06 242.15C767.92 239.96 768.7 237.82 772.06 237.74C774.67 237.68 777.13 238.74 779.62 239.38C789.51 241.8 796.2 233.95 805.36 232.3C807.54 231.9 806.61 228.59 804.45 228.98Z" fill="#6C63FF"/>
<path d="M756.61 241.96C747.15 240.96 737.61 240.05 728.11 241.28C719.51 242.4 712.11 245.8 704.56 249.95C697.01 254.1 689.65 258.24 680.94 257.89C672.23 257.54 664.33 253.89 655.94 252.56C647.87 251.32 641.52 253.12 634.94 257.82C631.07 260.58 627.31 262.58 622.48 262.98C618.22 263.33 613.94 262.84 609.67 262.79C602.444 262.566 595.352 264.774 589.53 269.06C583.98 273.06 579.19 278.06 573.34 281.61C565.85 286.16 558.76 285.28 551.47 280.81C544.88 276.81 538.83 271.58 530.75 271.23C528.54 271.13 528.54 274.58 530.75 274.67C538.39 275 544.26 280.56 550.53 284.27C556.1 287.56 562.29 289.38 568.68 287.5C581.57 283.7 588.76 269.68 602.06 266.8C610.76 264.92 619.88 268.09 628.49 265.32C632.27 264.11 635.27 261.69 638.49 259.48C641.933 256.95 646.078 255.552 650.35 255.48C658.85 255.48 666.9 259.15 675.18 260.61C682.767 261.96 690.587 260.874 697.52 257.51C706.33 253.46 714.19 247.66 723.8 245.51C734.57 243.07 745.8 244.27 756.67 245.39C758.84 245.63 758.82 242.19 756.61 241.96Z" fill="#69F0AE"/>
<path d="M756.76 248.79C760.56 248.79 763.64 245.71 763.64 241.91C763.64 238.11 760.56 235.03 756.76 235.03C752.96 235.03 749.88 238.11 749.88 241.91C749.88 245.71 752.96 248.79 756.76 248.79Z" fill="#69F0AE"/>
<path d="M534.83 181.34C535.968 181.34 536.89 180.418 536.89 179.28C536.89 178.142 535.968 177.22 534.83 177.22C533.692 177.22 532.77 178.142 532.77 179.28C532.77 180.418 533.692 181.34 534.83 181.34Z" fill="#F8F9FA"/>
<path d="M540.33 181.34C541.468 181.34 542.39 180.418 542.39 179.28C542.39 178.142 541.468 177.22 540.33 177.22C539.192 177.22 538.27 178.142 538.27 179.28C538.27 180.418 539.192 181.34 540.33 181.34Z" fill="#F8F9FA"/>
<path d="M545.84 181.34C546.978 181.34 547.9 180.418 547.9 179.28C547.9 178.142 546.978 177.22 545.84 177.22C544.702 177.22 543.78 178.142 543.78 179.28C543.78 180.418 544.702 181.34 545.84 181.34Z" fill="#F8F9FA"/>
<path d="M7.12 564.68C7.12 564.68 -42.45 642.12 120.05 643.45C120.05 643.45 122.44 576.07 69.32 548.31C58.9909 542.888 47.0319 541.443 35.7085 544.248C24.3851 547.053 14.4837 553.913 7.87999 563.53L7.12 564.68Z" fill="#69F0AE"/>
<path d="M7.48999 563.38C7.48999 563.38 90.72 579.78 120.05 643.45" stroke="#535461" stroke-miterlimit="10"/>
<path d="M127.31 633.03C127.31 633.03 73.87 563.97 78.75 495.89C80.75 467.32 74.04 438.78 58.54 414.68C51.1646 403.269 42.7595 392.558 33.43 382.68" stroke="#535461" stroke-width="2" stroke-miterlimit="10"/>
<path d="M36.23 339.77C39.96 349.33 33.47 383.82 33.47 383.82C33.47 383.82 5.34001 362.83 1.61001 353.27C0.626514 350.978 0.114155 348.512 0.103443 346.018C0.0927311 343.525 0.583882 341.054 1.54766 338.754C2.51143 336.454 3.92813 334.371 5.71341 332.63C7.49869 330.889 9.61606 329.525 11.9395 328.619C14.2629 327.713 16.7448 327.283 19.2376 327.357C21.7303 327.43 24.1829 328.003 26.4493 329.044C28.7157 330.084 30.7495 331.57 32.4298 333.413C34.1101 335.256 35.4025 337.417 36.23 339.77V339.77Z" fill="#69F0AE"/>
<path d="M85.53 381.55C83.47 391.61 59.27 417.03 59.27 417.03C59.27 417.03 47.05 384.13 49.11 374.03C49.5476 371.589 50.4694 369.259 51.8211 367.18C53.1727 365.1 54.9269 363.312 56.9802 361.92C59.0336 360.529 61.3446 359.562 63.7772 359.078C66.2098 358.593 68.7148 358.601 71.1446 359.099C73.5743 359.598 75.8798 360.577 77.9251 361.981C79.9704 363.384 81.7142 365.182 83.0538 367.27C84.3935 369.357 85.3018 371.692 85.7254 374.136C86.1489 376.579 86.0791 379.083 85.52 381.5L85.53 381.55Z" fill="#69F0AE"/>
<path d="M119.61 472.55C112.75 480.19 79.04 489.92 79.04 489.92C79.04 489.92 85.1 455.35 91.95 447.71C95.264 444.118 99.859 441.976 104.741 441.747C109.622 441.518 114.398 443.22 118.034 446.485C121.67 449.75 123.874 454.316 124.169 459.194C124.464 464.072 122.826 468.87 119.61 472.55V472.55Z" fill="#69F0AE"/>
<path d="M129.89 547.22C124.42 555.91 92.83 571.22 92.83 571.22C92.83 571.22 92.96 536.13 98.43 527.44C99.7043 525.32 101.389 523.476 103.385 522.015C105.381 520.555 107.648 519.507 110.054 518.934C112.46 518.361 114.956 518.273 117.396 518.677C119.837 519.08 122.172 519.967 124.265 521.284C126.358 522.602 128.168 524.324 129.587 526.349C131.006 528.375 132.007 530.663 132.531 533.08C133.055 535.498 133.091 537.995 132.638 540.426C132.184 542.858 131.25 545.174 129.89 547.24V547.22Z" fill="#69F0AE"/>
<path d="M23.61 433.07C33.07 437.07 67.72 431.49 67.72 431.49C67.72 431.49 47.54 402.77 38.08 398.77C35.8278 397.82 33.4106 397.323 30.9662 397.307C28.5219 397.291 26.0984 397.756 23.834 398.677C21.5697 399.598 19.5088 400.956 17.7692 402.673C16.0295 404.39 14.6451 406.433 13.695 408.685C12.7449 410.937 12.2477 413.354 12.2317 415.799C12.2158 418.243 12.6815 420.667 13.6022 422.931C14.5229 425.195 15.8806 427.256 17.5977 428.996C19.3148 430.735 21.3578 432.12 23.61 433.07V433.07Z" fill="#69F0AE"/>
<path d="M36.77 520.24C46.99 521.24 78.38 505.53 78.38 505.53C78.38 505.53 50.51 484.21 40.29 483.23C37.8257 482.93 35.3262 483.126 32.939 483.808C30.5518 484.489 28.3253 485.642 26.3908 487.198C24.4563 488.753 22.853 490.681 21.6756 492.867C20.4982 495.052 19.7705 497.452 19.5353 499.923C19.3002 502.394 19.5625 504.888 20.3067 507.256C21.0509 509.624 22.2619 511.82 23.8683 513.713C25.4747 515.605 27.4439 517.157 29.6598 518.277C31.8756 519.396 34.2933 520.06 36.77 520.23V520.24Z" fill="#69F0AE"/>
<path opacity="0.1" d="M463.5 500.44C444.5 500.02 424.09 500.97 408.99 508.44C380.99 522.26 384.76 550.29 366.5 569.74C351.08 586.16 321.61 594.69 293.03 600.13C246.47 609 197.64 612.32 151.4 621.85C124.14 627.47 97.08 635.64 78.4 649.62C59.72 663.6 51.34 684.45 63.97 700.99C75.65 716.28 101.38 724.46 124.81 732.38C148.24 740.3 173.06 750.69 179.58 767.2C183.21 776.39 180.51 786.3 184.75 795.37C193.11 813.27 224.42 821.72 252.55 826.29C275.02 829.94 297.86 832.63 320.88 834.29C339.27 835.64 358.08 836.35 376.13 833.72C391.76 831.44 406.23 826.72 421.22 823.09C516.46 799.9 626 819.96 723.14 800.32C740.82 796.77 758.21 791.77 771.61 783.59C781.61 777.51 789.01 769.91 795.24 762.03C811.1 742.03 819.79 719.6 820.46 697.11C820.86 683.63 818.46 670.01 822.15 656.73C826.02 642.91 836.35 630.2 841.85 616.61C851.85 591.91 844.85 564.61 823.08 543.24C815.309 535.364 805.782 529.442 795.28 525.96C786.48 523.14 776.64 522.06 766.95 520.96C739.95 518.03 712.6 515.09 685.36 516.74C665.98 517.92 647.01 521.41 627.57 522.04C600.29 522.93 578.92 516.64 554.19 510.73C525.74 503.99 493.73 501.1 463.5 500.44Z" fill="#69F0AE"/>
<path d="M120.14 296.01V563.48L476.02 494.35L469.22 289.21L120.14 296.01Z" fill="#FFB74D"/>
<path d="M789.11 611.37V699.77L412.83 809.71L408.99 807.72L111.36 653.3V287.79L479.7 275.89L481.97 478.76L467.23 483.3L461.56 293.55L137.42 304.79L135.16 579.63L417.36 703.17L417.58 703.12L789.11 611.37Z" fill="#FF9800"/>
<path opacity="0.1" d="M789.11 611.37V699.77L412.83 809.71L408.99 807.72L417.58 703.12L789.11 611.37Z" fill="black"/>
<path d="M335.48 483.01C335.48 483.01 153.3 501.19 135.61 527.52C117.92 553.85 135.46 586.15 135.46 586.15L417.1 708.55L799.04 609.95C799.04 609.95 788.84 540.81 757.11 532.88C725.38 524.95 472.61 470.55 472.61 470.55C472.61 470.55 370.61 464.31 335.48 483.01Z" fill="#EBECF0"/>
<path d="M135.44 527.77L422.75 626.94C422.75 626.94 729.2 534.02 772.61 542.77C772.61 542.77 558.24 466.04 472.61 469.38C404.37 472.04 332.92 483.24 332.92 483.24C332.92 483.24 143.38 502.28 135.44 527.77Z" fill="#F8F9FA"/>
<path d="M577.49 591.57L577.56 591.47V591.41L577.61 591.31V591.24V591.14V591.07V590.96V590.89V590.76V590.7C577.61 590.64 577.61 590.58 577.61 590.52C577.61 590.45 577.61 590.38 577.61 590.31C577.61 590.24 577.61 590.31 577.61 590.24C577.61 590.17 577.61 590.14 577.61 590.09V590V589.85V589.75V589.6V589.5V589.34V589.24V589.07V588.98L577.53 588.73L577.43 588.45V588.36L577.35 588.16V588.05L577.27 587.86L577.22 587.74L577.14 587.55L577.08 587.42L576.99 587.23L576.93 587.11L576.82 586.9L576.76 586.79L576.61 586.5L576.43 586.16L576.37 586.05L576.24 585.81L576.17 585.68L576.04 585.46L575.96 585.32L575.83 585.1L575.61 584.77L575.47 584.55L575.38 584.41L575.23 584.17L575.15 584.04L574.95 583.72V583.66L574.7 583.28L574.62 583.17L574.44 582.9L574.34 582.76L574.17 582.52L574.07 582.37L573.9 582.13L573.79 581.97L573.61 581.77L573.5 581.62L573.31 581.36L573.21 581.23L572.96 580.89V580.84L572.67 580.44L572.57 580.3L572.38 580.04L572.25 579.87L572.07 579.63L571.94 579.46L571.76 579.22L571.63 579.06L571.44 578.81L571.31 578.65L571.11 578.39L570.99 578.24L570.75 577.94L570.67 577.84C569.77 576.7 568.84 575.56 567.91 574.46C565.287 571.342 562.075 568.772 558.458 566.897C554.841 565.021 550.89 563.877 546.83 563.53C546 563.46 545.13 563.37 544.25 563.26H543.88L543.23 563.17H542.92L541.92 563.03L540.97 562.88L540.64 562.82L539.97 562.7L539.57 562.62L538.96 562.5L538.53 562.41L537.95 562.28L537.51 562.18L536.93 562.04L536.48 561.93L535.91 561.78L535.46 561.66L534.89 561.5C531.89 557.04 527.33 553.07 522.89 552.3C521.667 552.11 520.417 552.175 519.22 552.49L519.01 552.26L518.71 551.92L518.31 551.41L518.05 551.07L517.63 550.48L517.42 550.19C517.213 549.89 517.017 549.583 516.83 549.27C516.24 549.007 515.623 548.81 514.99 548.68C523.839 547.34 532.564 545.283 541.08 542.53C541.493 542.374 541.886 542.169 542.25 541.92L542.43 541.86C549.84 539.16 558.94 512.86 552.54 509.18C546.14 505.5 536.37 475.18 530.64 459.65C524.91 444.12 508.4 442.47 508.4 442.47C508.4 442.47 484.48 423.94 473.7 425.96C462.92 427.98 461.23 411.81 460.22 411.14C460.102 411.042 460.004 410.924 459.93 410.79C457.33 406.72 436.66 401.29 425.51 398.61C414.61 390.71 401.61 384.58 391.1 382.05C387.589 381.1 383.906 380.976 380.339 381.687C376.772 382.398 373.418 383.926 370.54 386.15C348.46 387.27 344.94 403.95 344.94 403.95C344.864 406.226 345.259 408.493 346.1 410.61C344.907 410.626 343.714 410.563 342.53 410.42C345.09 406.19 345.17 400.75 347.08 396.1C350.85 386.9 361.25 382.15 371.08 380.91C376.81 380.19 383.08 380.19 387.6 376.6C389.926 374.741 391.515 372.114 392.08 369.19C392.263 368.559 392.206 367.882 391.92 367.29C391.64 366.906 391.264 366.603 390.83 366.41C384.91 363.25 377.78 364.07 371.06 363.92C360.14 363.68 349.5 360.69 338.94 357.92C334.47 356.75 329.64 355.62 325.32 357.28C321.24 358.84 318.46 362.56 315.19 365.45C301.79 377.27 279.54 375.56 267.62 388.88C264.86 391.97 262.79 396.16 263.8 400.18C264.21 401.82 265.12 403.33 265.41 405C265.99 408.3 264.11 411.46 262.52 414.41C260.93 417.36 259.52 420.94 261.02 423.94C263.29 428.52 270.22 428.18 273.82 431.81C275.49 433.5 276.3 435.92 278.04 437.53C280.83 440.1 285.12 439.9 288.9 439.53C290.39 439.39 292.62 438.98 293.44 437.67C296.364 440.42 299.886 442.454 303.73 443.611C307.573 444.768 311.633 445.018 315.589 444.339C319.545 443.66 323.29 442.073 326.528 439.701C329.766 437.329 332.41 434.237 334.25 430.67C342.396 430.12 350.492 432.309 357.25 436.89C358.268 439.891 360.138 442.532 362.63 444.49C364.99 446.34 367.8 448.61 370.63 451.04C363.46 452.93 357.09 454.14 357.09 454.14C357.09 454.14 328.79 463.24 328.79 469.3C328.89 470.398 329.232 471.46 329.79 472.41C329.073 473.917 328.669 475.553 328.6 477.22C320.79 475.9 314.54 473.91 311.31 470.98C311.31 470.98 310.39 470.73 308.97 470.45C307.07 468.02 301.49 461.27 298.17 461.54C295.96 461.72 295.17 466.86 294.89 471.46C294.599 471.711 294.344 472.001 294.13 472.32C290.76 477.37 296.83 487.48 300.87 489.17C304.91 490.86 327.15 490.17 342.31 501.3C349.03 506.23 360.58 507.18 371.31 506.72C360.52 514.34 345.41 526.05 343.31 533.31C342.18 537.16 340.85 541.94 340.93 546.85C334.33 555.58 324.34 574.01 349.04 582.85C369.4 590.12 424.6 589.19 463.93 587.41C482.23 590.64 497.34 593.89 503.68 597C503.68 597 518.84 599 524.91 602.73C530.98 606.46 542.09 605.43 542.09 605.43C542.09 605.43 563.65 609.14 568.37 613.85C573.09 618.56 581.17 605.76 571.07 599.7C567.13 597.34 561.26 593.45 555.57 589.19C562.88 590.05 569.33 590.99 573.43 591.95L573.84 592.04H573.97H574.23H574.38H574.6H574.74H574.95H575.95H576.21H576.29H576.45H576.54H576.67H576.75H576.87H576.95L577.06 591.99H577.13L577.23 591.92H577.28L577.41 591.81L577.49 591.57ZM484.42 559.27C484.42 559.27 481.58 558.62 477.34 557.62L468.92 554.22C468.92 554.22 483.29 549.7 496.6 543.95C500.41 545.62 503.76 546.95 504.6 548.16C504.962 548.561 505.455 548.82 505.99 548.89C500.99 550.13 494.57 553.32 487.04 560.68C486.127 560.288 485.25 559.817 484.42 559.27V559.27ZM382.68 478.07L390.99 474.21C392.8 475.75 394.74 477.21 396.64 478.63C392.08 478.9 385.95 479.2 379.02 479.39C381.14 478.68 382.68 478.07 382.68 478.07Z" fill="url(#paint0_linear_2_64)"/>
<path d="M311.87 471.63C311.87 471.63 304.61 461.77 300.66 462.07C296.71 462.37 297.36 478.89 297.36 478.89L311.87 471.63Z" fill="#FFD5D8"/>
<path d="M405.21 478.23C405.21 478.23 328.03 484.5 313.52 471.3C313.52 471.3 300 467.67 296.7 472.62C293.4 477.57 299.34 487.46 303.3 489.11C307.26 490.76 329.03 490.11 343.87 500.98C358.71 511.85 397.63 502.98 397.63 502.98L413.79 496.71L405.21 478.23Z" fill="#3F51B5"/>
<path d="M515.7 515.17C515.7 515.17 499.21 503.3 465.24 518.17C431.27 533.04 346.51 540.93 346.51 540.93C346.51 540.93 318.15 569.29 350.51 580.84C382.87 592.39 504.86 582.84 504.86 582.84C504.86 582.84 554.66 586.14 570.16 589.77C579.54 591.97 572.16 581.35 564.81 572.63C562.244 569.575 559.099 567.057 555.557 565.221C552.015 563.385 548.145 562.266 544.17 561.93C534.43 561.1 520.92 558.04 514.74 547.88C514.74 547.88 502.87 541.94 485.06 559.75L467.88 552.77C467.88 552.77 515.04 537.93 516.69 528.03C518.34 518.13 515.7 515.17 515.7 515.17Z" fill="#FFD5D8"/>
<path opacity="0.05" d="M515.7 515.17C515.7 515.17 499.21 503.3 465.24 518.17C431.27 533.04 346.51 540.93 346.51 540.93C346.51 540.93 318.15 569.29 350.51 580.84C382.87 592.39 504.86 582.84 504.86 582.84C504.86 582.84 554.66 586.14 570.16 589.77C578.38 591.69 573.71 583.77 567.52 575.95C564.433 572.022 560.6 568.743 556.24 566.303C551.881 563.862 547.082 562.308 542.12 561.73C532.62 560.65 520.5 557.34 514.75 547.88C514.75 547.88 502.88 541.94 485.07 559.75L467.88 552.77C467.88 552.77 515.04 537.93 516.69 528.03C518.34 518.13 515.7 515.17 515.7 515.17Z" fill="black"/>
<path d="M516.03 468.34C516.03 468.34 495.25 435.34 446.11 464.05L383.11 499.05C383.11 499.05 348.11 521.15 344.85 532.36C341.59 543.57 336.6 562.7 370.91 569.96C405.22 577.22 485.03 586.45 501.85 594.7C501.85 594.7 516.69 596.7 522.63 600.31C528.57 603.92 539.45 602.95 539.45 602.95C539.45 602.95 560.56 606.58 565.18 611.2C569.8 615.82 577.71 603.28 567.82 597.35C557.93 591.42 535.5 575.58 535.82 569.35C536.14 563.12 528.23 552.11 520.61 550.77C512.99 549.43 503.13 560.66 503.13 560.66C503.13 560.66 490.6 562.66 483.01 557.66C483.01 557.66 444.09 548.75 440.13 546.12C436.17 543.49 409.13 533.26 409.13 533.26C409.13 533.26 473.13 532.6 491.91 515.45C491.91 515.45 499.17 510.17 505.1 511.82C505.15 511.87 534.5 500.66 516.03 468.34Z" fill="#FFD5D8"/>
<path d="M329.02 406.33C329.02 406.33 347.82 419.52 362.33 406.33C376.84 393.14 368.61 446.9 368.61 446.9C368.61 446.9 348.49 420.18 318.48 437.67L329.02 406.33Z" fill="#FFD5D8"/>
<path opacity="0.05" d="M329.02 406.33C329.02 406.33 347.82 419.52 362.33 406.33C376.84 393.14 368.61 446.9 368.61 446.9C368.61 446.9 348.49 420.18 318.48 437.67L329.02 406.33Z" fill="black"/>
<path d="M248.55 519.46C248.55 519.46 268.34 502.64 279.55 502.31C282.89 502.21 286.75 498.81 290.55 494.09C295.35 488.127 301.682 483.581 308.867 480.938C316.052 478.296 323.82 477.657 331.34 479.09C337.72 480.27 345.57 480.24 355.1 477.88C389.73 469.3 372.58 447.88 372.58 447.88L361.7 438.65C361.7 438.65 346.86 428.43 341.25 429.09C335.64 429.75 321.13 444.59 319.48 442.94C317.83 441.29 297.71 426.45 294.41 422.49C291.11 418.53 264.71 405.67 271.31 402.04C277.91 398.41 311.21 384.89 304.61 382.25C298.01 379.61 262.39 375.65 248.54 392.14C234.69 408.63 241.61 509.89 248.55 519.46Z" fill="#F8F9FA"/>
<path opacity="0.05" d="M248.55 519.46C248.55 519.46 268.34 502.64 279.55 502.31C282.89 502.21 286.75 498.81 290.55 494.09C295.35 488.127 301.682 483.581 308.867 480.938C316.052 478.296 323.82 477.657 331.34 479.09C337.72 480.27 345.57 480.24 355.1 477.88C389.73 469.3 372.58 447.88 372.58 447.88L361.7 438.65C361.7 438.65 346.86 428.43 341.25 429.09C335.64 429.75 321.13 444.59 319.48 442.94C317.83 441.29 297.71 426.45 294.41 422.49C291.11 418.53 264.71 405.67 271.31 402.04C277.91 398.41 311.21 384.89 304.61 382.25C298.01 379.61 262.39 375.65 248.54 392.14C234.69 408.63 241.61 509.89 248.55 519.46Z" fill="black"/>
<path d="M249.87 517.15C249.87 517.15 269.66 500.33 280.87 500C284.21 499.9 288.07 496.5 291.87 491.78C296.665 485.823 302.987 481.281 310.163 478.637C317.338 475.993 325.097 475.348 332.61 476.77C338.99 477.95 346.84 477.92 356.37 475.56C391 466.98 373.85 445.56 373.85 445.56L362.97 436.33C362.97 436.33 348.13 426.11 342.52 426.77C336.91 427.43 322.4 442.27 320.75 440.62C319.1 438.97 298.98 424.13 295.68 420.17C292.38 416.21 266.03 403.36 272.61 399.77C279.19 396.18 312.52 382.62 305.92 379.98C299.32 377.34 263.7 373.38 249.85 389.87C236 406.36 242.94 507.58 249.87 517.15Z" fill="#F8F9FA"/>
<path d="M346.5 405.67C346.5 405.67 351.78 380.6 390.37 390.5C428.96 400.4 448.09 421.83 448.09 421.83L413.09 437.99L370.21 423.48C370.21 423.48 346.18 423.77 346.5 405.67Z" fill="#FFD5D8"/>
<path opacity="0.05" d="M417.09 399.4C417.09 399.4 454.2 407.4 457.7 412.91C457.774 413.041 457.873 413.156 457.99 413.25C458.99 413.91 460.63 429.74 471.18 427.76C481.73 425.78 505.18 443.92 505.18 443.92C505.18 443.92 521.34 445.57 526.95 460.74C532.56 475.91 542.12 505.6 548.39 509.22C554.66 512.84 545.75 538.57 538.5 541.22C531.25 543.87 505.19 550.13 502.88 546.83C500.57 543.53 480.45 539.9 481.77 529.35C483.09 518.8 491 508.9 484.77 502.63C478.54 496.36 474.55 479.87 465.31 476.57C456.07 473.27 439.58 472.28 429.69 478.88C419.8 485.48 407.85 485.77 407.85 485.77C407.85 485.77 387.4 473.9 384.1 465.65C381.88 460.09 370.82 450.79 363.84 445.32C362.011 443.884 360.516 442.067 359.461 439.994C358.406 437.922 357.815 435.644 357.73 433.32C357.44 425.18 357.18 413.18 358.04 411.24C359.36 408.24 377.5 390.46 377.5 390.46L417.09 399.4Z" fill="black"/>
<path d="M418.41 398.77C418.41 398.77 455.52 406.77 459.02 412.28C459.094 412.411 459.193 412.526 459.31 412.62C460.31 413.28 461.95 429.11 472.5 427.13C483.05 425.15 506.5 443.29 506.5 443.29C506.5 443.29 522.66 444.94 528.27 460.11C533.88 475.28 543.44 504.97 549.71 508.59C555.98 512.21 547.07 537.94 539.82 540.59C532.57 543.24 506.51 549.5 504.2 546.2C501.89 542.9 481.77 539.27 483.09 528.72C484.41 518.17 492.32 508.27 486.09 502C479.86 495.73 475.87 479.24 466.63 475.94C457.39 472.64 440.9 471.65 431.01 478.25C421.12 484.85 408.09 486 408.09 486C408.09 486 388.8 473.3 385.5 465.06C383.28 459.5 372.22 450.2 365.24 444.73C363.411 443.294 361.916 441.477 360.861 439.404C359.806 437.332 359.215 435.054 359.13 432.73C358.84 424.59 358.58 412.59 359.44 410.65C360.76 407.65 378.9 389.87 378.9 389.87L418.41 398.77Z" fill="#3F51B5"/>
<path d="M332.98 470.31C332.65 470.64 327.04 478.89 333.64 483.5C335.466 484.839 337.576 485.74 339.805 486.133C342.035 486.527 344.326 486.403 346.5 485.77L332.98 470.31Z" fill="#FFD5D8"/>
<path opacity="0.1" d="M364.61 398.41C364.61 398.41 373.52 380.6 392.61 385.22C411.7 389.84 439.44 406.66 446.04 423.48C452.64 440.3 421.04 460.77 421.04 460.77L383.44 478.25C383.44 478.25 371.9 482.87 368.6 481.25C365.3 479.63 349.47 493.77 349.47 493.77C349.47 493.77 331.66 476.62 331.66 470.68C331.66 464.74 359.37 455.77 359.37 455.77C359.37 455.77 392.37 449.5 392.02 443.24C392.02 443.24 397.63 436.64 394.66 434.66C391.69 432.68 359.86 423.28 359.86 423.28C359.86 423.28 358.71 402.37 364.61 398.41Z" fill="black"/>
<path d="M363.61 397.42C363.61 397.42 372.52 379.61 391.61 384.23C410.7 388.85 438.44 405.67 445.04 422.49C451.64 439.31 420.05 459.77 420.05 459.77L382.45 477.25C382.45 477.25 370.91 481.87 367.61 480.25C364.31 478.63 348.48 492.77 348.48 492.77C348.48 492.77 330.67 475.62 330.67 469.68C330.67 463.74 358.38 454.77 358.38 454.77C358.38 454.77 391.38 448.5 391.03 442.24C391.03 442.24 396.64 435.64 393.67 433.66C390.7 431.68 358.87 422.28 358.87 422.28C358.87 422.28 357.72 401.38 363.61 397.42Z" fill="#3F51B5"/>
<path opacity="0.1" d="M321.44 434.36C326.79 431.101 332.813 429.107 339.05 428.53C340.86 425.04 336.11 421.24 336.11 417.04C336.11 413.52 334.77 412.18 333.47 409.12C328.75 407.41 331.99 403.02 331.99 403.02L321.44 434.36Z" fill="black"/>
<path d="M313.52 445.58C327.548 445.58 338.92 434.208 338.92 420.18C338.92 406.152 327.548 394.78 313.52 394.78C299.492 394.78 288.12 406.152 288.12 420.18C288.12 434.208 299.492 445.58 313.52 445.58Z" fill="#FFD5D8"/>
<path d="M294.48 430.6C300.15 426.22 307.53 424.75 314.67 424.11C319.13 423.71 323.67 423.57 327.95 422.21C330.412 421.351 332.799 420.295 335.09 419.05C338.15 417.49 341.31 415.85 343.4 413.12C346.66 408.86 346.56 402.96 348.6 397.99C352.29 388.99 362.47 384.33 372.13 383.12C377.74 382.41 383.87 382.41 388.31 378.9C390.588 377.081 392.144 374.511 392.7 371.65C392.878 371.031 392.821 370.369 392.54 369.79C392.265 369.415 391.896 369.118 391.47 368.93C385.67 365.84 378.69 366.64 372.12 366.49C361.43 366.26 351.01 363.32 340.67 360.61C336.29 359.46 331.56 358.36 327.34 359.98C323.34 361.51 320.63 365.15 317.42 367.98C304.3 379.56 282.52 377.88 270.85 390.92C268.15 393.92 266.12 398.05 267.11 401.98C267.52 403.59 268.4 405.06 268.69 406.7C269.26 409.93 267.42 413.03 265.86 415.91C264.3 418.79 262.94 422.31 264.39 425.24C266.62 429.72 273.39 429.39 276.92 432.94C278.56 434.59 279.34 436.94 281.05 438.54C283.79 441.06 287.98 440.86 291.68 440.54C293.68 440.35 296.95 439.69 296.38 437.01C295.9 434.61 292.73 433.58 294.48 430.6Z" fill="#85596B"/>
<path d="M285.61 445.77C285.61 445.77 302.93 432.77 313.81 437.03C324.69 441.29 327.66 443.63 334.59 441.03C341.52 438.43 344.48 446.31 344.48 446.31L301.32 458.77L285.61 445.77Z" fill="#F8F9FA"/>
<path opacity="0.05" d="M262.24 468.5C262.24 468.5 270.16 448.05 279.72 444.09Z" fill="black"/>
<path opacity="0.05" d="M252.01 461.9C252.01 461.9 259.93 441.45 269.49 437.49Z" fill="black"/>
<path opacity="0.05" d="M437.37 466.85C437.37 466.85 465.37 453.33 484.2 454.65C503.03 455.97 506.3 444.1 506.3 444.1" fill="black"/>
<path d="M316.24 804.41C313.91 802.24 311.72 799.68 311.04 796.57C310.36 793.46 311.69 789.72 314.67 788.57C318 787.29 321.57 789.57 324.27 791.94C326.97 794.31 330.07 796.94 333.6 796.44C331.782 794.791 330.422 792.699 329.653 790.368C328.883 788.038 328.731 785.547 329.21 783.14C329.365 782.146 329.787 781.213 330.43 780.44C332.28 778.44 335.64 779.31 337.85 780.87C344.85 785.87 346.85 795.4 346.9 804.02C347.61 800.91 347.01 797.67 347.03 794.48C347.05 791.29 347.92 787.76 350.61 786.04C352.285 785.14 354.169 784.698 356.07 784.76C359.24 784.64 362.77 784.96 364.93 787.28C367.62 790.16 366.93 794.99 364.58 798.16C362.23 801.33 358.68 803.32 355.41 805.51C352.785 807.075 350.546 809.211 348.86 811.76C348.66 812.116 348.496 812.491 348.37 812.88H328.52C324.063 810.624 319.932 807.774 316.24 804.41V804.41Z" fill="#69F0AE"/>
<path d="M774.77 715.26C773.223 713.999 772.097 712.297 771.54 710.38C771.12 708.44 771.95 706.12 773.8 705.38C775.87 704.59 778.09 706.02 779.8 707.48C781.51 708.94 783.4 710.59 785.6 710.28C784.469 709.255 783.623 707.954 783.144 706.505C782.666 705.056 782.571 703.507 782.87 702.01C782.966 701.391 783.229 700.811 783.63 700.33C784.78 699.1 786.87 699.63 788.25 700.6C792.63 703.68 793.85 709.6 793.88 714.99C794.32 713.06 793.95 711.04 793.96 709.06C793.97 707.08 794.51 704.88 796.19 703.82C797.233 703.258 798.406 702.982 799.59 703.02C801.59 702.95 803.75 703.15 805.1 704.59C806.77 706.38 806.34 709.38 804.88 711.35C803.42 713.32 801.21 714.56 799.18 715.92C797.548 716.894 796.157 718.224 795.11 719.81C794.988 720.03 794.887 720.261 794.81 720.5H782.4C779.632 719.105 777.066 717.342 774.77 715.26Z" fill="#69F0AE"/>
</g>
<defs>
<linearGradient id="paint0_linear_2_64" x1="419.15" y1="614.87" x2="419.15" y2="356.44" gradientUnits="userSpaceOnUse">
<stop stop-color="#808080" stop-opacity="0.25"/>
<stop offset="0.54" stop-color="#808080" stop-opacity="0.12"/>
<stop offset="1" stop-color="#808080" stop-opacity="0.1"/>
</linearGradient>
<clipPath id="clip0_2_64">
<rect width="1057.21" height="835.54" fill="white"/>
</clipPath>
</defs>
</svg>
